<svg xmlns="http://www.w3.org/2000/svg" width="19.158" height="20.811" viewBox="0 0 19.158 20.811">
  <path id="Icon_awesome-phone-alt" data-name="Icon awesome-phone-alt" d="M18.611,14.706,14.42,12.755a.853.853,0,0,0-1.048.28L11.517,15.5a14.524,14.524,0,0,1-6.63-7.2L7.154,6.281a1.029,1.029,0,0,0,.258-1.138L5.616.59A.888.888,0,0,0,4.587.025L.7,1a.962.962,0,0,0-.7.951c0,10.426,7.779,18.86,17.362,18.86a.917.917,0,0,0,.876-.756l.9-4.227A1.011,1.011,0,0,0,18.611,14.706Z" transform="translate(0 0)" fill="#838485"/>
</svg>
